# xmcd
#
# Track frame offsets:
#	150
#	13565
#	26762
#	43561
#	57419
#	81979
#	95482
#	122572
#	134495
#	142777
#	160946
#	173952
#	183194
#	196405
#	211962
#	228851
#	260068
#	273353
#	297395
#	317333
#	325214
#
# Disc length: 4375 seconds
#
# Revision: 0
# Processed by: cddbd v1.5.1PL2 Copyright (c) Steve Scherf et al.
# Submitted via: dBpowerAMP V4.0
#
DISCID=2b111515
DTITLE=Gram Parsons - 'A Song for You' Acoustic Rehersals for G.P. Album
DYEAR=1900
DGENRE=
TTITLE0=Folsom Prison Blues
TTITLE1=How Much I've Lied
TTITLE2=The New Soft Shoe
TTITLE3=Kentucky Moon
TTITLE4=Ain't no Beatle, Ain't no Rolling Stone
TTITLE5=Still Feeling Blue
TTITLE6=A Song for You
TTITLE7=How Can I Forget You
TTITLE8=Cry One More Time
TTITLE9=Streets of Baltimore
TTITLE10=That's All it Took
TTITLE11=Somebody's Back in Town
TTITLE12=More and More
TTITLE13=Big Mouth Blues
TTITLE14=Kiss the Children
TTITLE15=Daddy's Fiddle
TTITLE16=We'll Sweep Out the Ashes
TTITLE17=Cold Cold Heart
TTITLE18=The New Soft Shoe
TTITLE19=We'll Sweep Out the Ashes
TTITLE20=Lovesick Blues
EXTD=
EXTT0=
EXTT1=
EXTT2=
EXTT3=
EXTT4=
EXTT5=
EXTT6=
EXTT7=
EXTT8=
EXTT9=
EXTT10=
EXTT11=
EXTT12=
EXTT13=
EXTT14=
EXTT15=
EXTT16=
EXTT17=
EXTT18=
EXTT19=
EXTT20=
PLAYORDER=
